<mxfile host="app.diagrams.net" modified="2023-09-20T12:57:14.930Z" agent="Mozilla/5.0 (Windows NT 10.0; Win64; x64) AppleWebKit/537.36 (KHTML, like Gecko) Chrome/116.0.0.0 Safari/537.36" version="21.7.5" etag="FmPV5_DOMVtjS_BzOZhK" type="github">
  <diagram name="Page-1" id="O1Y2XJb3NOdnXM0ezNxB">
    <mxGraphModel>
      <root>
        <mxCell id="0" />
        <mxCell id="1" parent="0" />
      </root>
    </mxGraphModel>
  </diagram>
</mxfile>
